<svg width="117" height="15" viewBox="0 0 117 15" fill="none" xmlns="http://www.w3.org/2000/svg">
<path d="M1.01999 14.856C0.723986 14.856 0.479986 14.724 0.287986 14.46C0.0959864 14.204 -1.36197e-05 13.724 -1.36197e-05 13.02C-1.36197e-05 12.652 0.0319864 12.204 0.0959864 11.676C0.159986 11.156 0.231986 10.568 0.311986 9.912C0.399986 9.256 0.475986 8.548 0.539986 7.788C0.603986 7.028 0.635986 6.236 0.635986 5.412C0.635986 5.124 0.623986 4.844 0.599986 4.572C0.575986 4.292 0.503986 4.036 0.383986 3.804C0.471986 3.716 0.595986 3.648 0.755986 3.6C0.923986 3.552 1.06399 3.528 1.17599 3.528C1.44799 3.528 1.65199 3.62 1.78799 3.804C1.93199 3.988 2.00399 4.316 2.00399 4.788C2.00399 5.092 1.99199 5.376 1.96799 5.64C1.94399 5.896 1.90799 6.18 1.85999 6.492C1.81199 6.804 1.74399 7.188 1.65599 7.644C2.17599 6.308 2.69199 5.268 3.20399 4.524C3.72399 3.772 4.20399 3.396 4.64399 3.396C4.97999 3.396 5.29599 3.512 5.59199 3.744C5.88799 3.976 6.12799 4.344 6.31199 4.848C6.49599 5.352 6.58799 6.012 6.58799 6.828C6.58799 7.404 6.52399 7.984 6.39599 8.568C6.26799 9.152 6.07199 9.688 5.80799 10.176C5.54399 10.656 5.20799 11.044 4.79999 11.34C4.39199 11.628 3.90799 11.772 3.34799 11.772C3.01199 11.772 2.64799 11.712 2.25599 11.592C1.87199 11.464 1.56399 11.304 1.33199 11.112C1.31599 11.312 1.29999 11.512 1.28399 11.712C1.27599 11.92 1.27199 12.128 1.27199 12.336C1.27199 12.72 1.29999 13.096 1.35599 13.464C1.41999 13.84 1.57999 14.16 1.83599 14.424C1.69199 14.6 1.54399 14.716 1.39199 14.772C1.24799 14.828 1.12399 14.856 1.01999 14.856ZM3.25199 10.956C3.69999 10.956 4.07999 10.788 4.39199 10.452C4.70399 10.116 4.93999 9.664 5.09999 9.096C5.25999 8.528 5.33999 7.896 5.33999 7.2C5.33999 6.752 5.30399 6.336 5.23199 5.952C5.16799 5.568 5.05999 5.26 4.90799 5.028C4.75599 4.788 4.55999 4.668 4.31999 4.668C4.12799 4.668 3.89199 4.82 3.61199 5.124C3.33999 5.428 3.05599 5.852 2.75999 6.396C2.47199 6.932 2.20399 7.552 1.95599 8.256C1.71599 8.96 1.53599 9.712 1.41599 10.512C1.68799 10.664 1.97599 10.776 2.27999 10.848C2.59199 10.92 2.91599 10.956 3.25199 10.956ZM10.2294 11.772C9.68542 11.772 9.25342 11.504 8.93342 10.968C8.62142 10.432 8.46542 9.696 8.46542 8.76C8.46542 8.008 8.55342 7.308 8.72942 6.66C8.91342 6.004 9.16542 5.432 9.48542 4.944C9.80542 4.456 10.1774 4.076 10.6014 3.804C11.0254 3.532 11.4854 3.396 11.9814 3.396C12.6614 3.396 13.2254 3.664 13.6734 4.2C13.7374 3.952 13.8174 3.776 13.9134 3.672C14.0174 3.568 14.1574 3.516 14.3334 3.516C14.5814 3.516 14.7974 3.62 14.9814 3.828C14.9094 4.02 14.8414 4.288 14.7774 4.632C14.7134 4.968 14.6574 5.348 14.6094 5.772C14.5614 6.188 14.5214 6.624 14.4894 7.08C14.4654 7.528 14.4534 7.96 14.4534 8.376C14.4534 9.096 14.4934 9.672 14.5734 10.104C14.6614 10.528 14.8054 10.908 15.0054 11.244C14.7734 11.54 14.5014 11.688 14.1894 11.688C13.8534 11.688 13.5974 11.472 13.4214 11.04C13.2454 10.608 13.1574 9.98 13.1574 9.156C13.1574 9.036 13.1614 8.892 13.1694 8.724C13.1854 8.548 13.2014 8.372 13.2174 8.196C13.2334 8.012 13.2454 7.856 13.2534 7.728C12.9814 8.496 12.6654 9.188 12.3054 9.804C11.9534 10.412 11.5934 10.892 11.2254 11.244C10.8654 11.596 10.5334 11.772 10.2294 11.772ZM10.6374 10.5C10.8214 10.5 11.0294 10.38 11.2614 10.14C11.4934 9.892 11.7334 9.564 11.9814 9.156C12.2374 8.748 12.4734 8.296 12.6894 7.8C12.9134 7.304 13.1054 6.8 13.2654 6.288C13.4254 5.776 13.5294 5.296 13.5774 4.848C13.0334 4.432 12.5174 4.224 12.0294 4.224C11.5814 4.224 11.1814 4.404 10.8294 4.764C10.4854 5.124 10.2134 5.624 10.0134 6.264C9.82142 6.896 9.72542 7.628 9.72542 8.46C9.72542 9.092 9.80542 9.592 9.96542 9.96C10.1334 10.32 10.3574 10.5 10.6374 10.5ZM18.2397 11.688C17.9597 11.688 17.7317 11.576 17.5557 11.352C17.3877 11.128 17.3037 10.712 17.3037 10.104C17.3037 9.816 17.3317 9.444 17.3877 8.988C17.4437 8.532 17.5157 8.024 17.6037 7.464C17.6917 6.904 17.7757 6.324 17.8557 5.724C17.9437 5.116 18.0157 4.516 18.0717 3.924C18.1277 3.324 18.1557 2.764 18.1557 2.244C18.1557 1.956 18.1437 1.676 18.1197 1.404C18.0957 1.124 18.0237 0.864003 17.9037 0.624004C17.9917 0.544003 18.1197 0.480003 18.2877 0.432003C18.4557 0.384003 18.5957 0.360003 18.7077 0.360003C18.9797 0.360003 19.1837 0.452003 19.3197 0.636003C19.4637 0.820004 19.5357 1.148 19.5357 1.62C19.5357 1.916 19.5037 2.308 19.4397 2.796C19.3757 3.284 19.2997 3.828 19.2117 4.428C19.1237 5.02 19.0317 5.632 18.9357 6.264C18.8477 6.888 18.7717 7.492 18.7077 8.076C18.6437 8.652 18.6117 9.164 18.6117 9.612C18.6117 9.924 18.6357 10.224 18.6837 10.512C18.7397 10.792 18.8677 11.04 19.0677 11.256C18.9157 11.432 18.7637 11.548 18.6117 11.604C18.4597 11.66 18.3357 11.688 18.2397 11.688ZM24.0961 11.808C23.4161 11.808 22.8601 11.66 22.4281 11.364C21.9961 11.068 21.6761 10.668 21.4681 10.164C21.2681 9.66 21.1681 9.104 21.1681 8.496C21.1681 8.032 21.2241 7.564 21.3361 7.092C21.4561 6.612 21.6241 6.152 21.8401 5.712C22.0561 5.272 22.3241 4.88 22.6441 4.536C22.9641 4.184 23.3241 3.908 23.7241 3.708C24.1321 3.5 24.5801 3.396 25.0681 3.396C25.7081 3.396 26.1801 3.556 26.4841 3.876C26.7881 4.196 26.9401 4.58 26.9401 5.028C26.9401 5.38 26.8521 5.744 26.6761 6.12C26.5081 6.488 26.2561 6.832 25.9201 7.152C25.5921 7.472 25.1921 7.732 24.7201 7.932C24.2481 8.132 23.7121 8.232 23.1121 8.232C22.8961 8.232 22.6801 8.22 22.4641 8.196C22.4801 9.092 22.6481 9.772 22.9681 10.236C23.2881 10.692 23.7401 10.92 24.3241 10.92C24.7241 10.92 25.0761 10.824 25.3801 10.632C25.6841 10.432 25.9321 10.124 26.1241 9.708C26.2201 9.796 26.2921 9.904 26.3401 10.032C26.3881 10.152 26.4121 10.268 26.4121 10.38C26.4121 10.628 26.3361 10.844 26.1841 11.028C26.0321 11.204 25.8361 11.352 25.5961 11.472C25.3641 11.584 25.1121 11.668 24.8401 11.724C24.5761 11.78 24.3281 11.808 24.0961 11.808ZM23.0281 7.464C23.6121 7.464 24.1001 7.36 24.4921 7.152C24.8841 6.944 25.1801 6.684 25.3801 6.372C25.5801 6.052 25.6801 5.736 25.6801 5.424C25.6801 5.112 25.5841 4.848 25.3921 4.632C25.2001 4.408 24.9041 4.296 24.5041 4.296C24.1441 4.296 23.8401 4.4 23.5921 4.608C23.3521 4.808 23.1561 5.072 23.0041 5.4C22.8521 5.72 22.7361 6.06 22.6561 6.42C22.5761 6.78 22.5201 7.116 22.4881 7.428C22.6801 7.452 22.8601 7.464 23.0281 7.464ZM30.5162 11.784C30.2602 11.784 30.0162 11.732 29.7842 11.628C29.5602 11.524 29.3762 11.356 29.2322 11.124C29.0882 10.884 29.0162 10.564 29.0162 10.164C29.0162 9.9 29.0362 9.568 29.0762 9.168C29.1242 8.76 29.1802 8.324 29.2442 7.86C29.3162 7.388 29.3842 6.908 29.4482 6.42C29.5202 5.932 29.5842 5.472 29.6402 5.04C29.3922 5.04 29.1162 5.06 28.8122 5.1C28.5162 5.14 28.2642 5.228 28.0562 5.364C28.0562 5.084 28.0842 4.848 28.1402 4.656C28.1962 4.456 28.3442 4.304 28.5842 4.2C28.8242 4.096 29.2122 4.044 29.7482 4.044C29.7482 3.956 29.7522 3.868 29.7602 3.78C29.7682 3.692 29.7722 3.596 29.7722 3.492C29.7722 3.196 29.7602 2.912 29.7362 2.64C29.7122 2.368 29.6402 2.112 29.5202 1.872C29.6082 1.792 29.7322 1.728 29.8922 1.68C30.0602 1.624 30.2042 1.596 30.3242 1.596C30.5882 1.596 30.7922 1.688 30.9362 1.872C31.0802 2.056 31.1522 2.384 31.1522 2.856C31.1522 2.968 31.1362 3.128 31.1042 3.336C31.0802 3.536 31.0482 3.772 31.0082 4.044C31.4482 4.036 31.8362 4.008 32.1722 3.96C32.5082 3.912 32.7722 3.824 32.9642 3.696C32.9242 4.056 32.8282 4.332 32.6762 4.524C32.5322 4.708 32.3122 4.836 32.0162 4.908C31.7202 4.972 31.3282 5.012 30.8402 5.028C30.7602 5.54 30.6762 6.092 30.5882 6.684C30.5002 7.276 30.4282 7.868 30.3722 8.46C30.3162 9.052 30.2882 9.608 30.2882 10.128C30.2882 10.408 30.3482 10.608 30.4682 10.728C30.5962 10.848 30.7402 10.908 30.9002 10.908C31.1002 10.908 31.3082 10.828 31.5242 10.668C31.7402 10.5 31.9122 10.292 32.0402 10.044C32.1842 10.22 32.2562 10.408 32.2562 10.608C32.2562 10.8 32.1882 10.988 32.0522 11.172C31.9242 11.348 31.7322 11.492 31.4762 11.604C31.2202 11.724 30.9002 11.784 30.5162 11.784ZM35.6663 11.784C35.4103 11.784 35.1663 11.732 34.9343 11.628C34.7103 11.524 34.5263 11.356 34.3823 11.124C34.2383 10.884 34.1663 10.564 34.1663 10.164C34.1663 9.9 34.1863 9.568 34.2263 9.168C34.2743 8.76 34.3303 8.324 34.3943 7.86C34.4663 7.388 34.5343 6.908 34.5983 6.42C34.6703 5.932 34.7343 5.472 34.7903 5.04C34.5423 5.04 34.2663 5.06 33.9623 5.1C33.6663 5.14 33.4143 5.228 33.2063 5.364C33.2063 5.084 33.2343 4.848 33.2903 4.656C33.3463 4.456 33.4943 4.304 33.7343 4.2C33.9743 4.096 34.3623 4.044 34.8983 4.044C34.8983 3.956 34.9023 3.868 34.9103 3.78C34.9183 3.692 34.9223 3.596 34.9223 3.492C34.9223 3.196 34.9103 2.912 34.8863 2.64C34.8623 2.368 34.7903 2.112 34.6703 1.872C34.7583 1.792 34.8823 1.728 35.0423 1.68C35.2103 1.624 35.3543 1.596 35.4743 1.596C35.7383 1.596 35.9423 1.688 36.0863 1.872C36.2303 2.056 36.3023 2.384 36.3023 2.856C36.3023 2.968 36.2863 3.128 36.2543 3.336C36.2303 3.536 36.1983 3.772 36.1583 4.044C36.5983 4.036 36.9863 4.008 37.3223 3.96C37.6583 3.912 37.9223 3.824 38.1143 3.696C38.0743 4.056 37.9783 4.332 37.8263 4.524C37.6823 4.708 37.4623 4.836 37.1663 4.908C36.8703 4.972 36.4783 5.012 35.9903 5.028C35.9103 5.54 35.8263 6.092 35.7383 6.684C35.6503 7.276 35.5783 7.868 35.5223 8.46C35.4663 9.052 35.4383 9.608 35.4383 10.128C35.4383 10.408 35.4983 10.608 35.6183 10.728C35.7463 10.848 35.8903 10.908 36.0503 10.908C36.2503 10.908 36.4583 10.828 36.6743 10.668C36.8903 10.5 37.0623 10.292 37.1903 10.044C37.3343 10.22 37.4063 10.408 37.4063 10.608C37.4063 10.8 37.3383 10.988 37.2023 11.172C37.0743 11.348 36.8823 11.492 36.6263 11.604C36.3703 11.724 36.0503 11.784 35.6663 11.784ZM41.6325 11.808C40.9525 11.808 40.3965 11.66 39.9645 11.364C39.5325 11.068 39.2125 10.668 39.0045 10.164C38.8045 9.66 38.7045 9.104 38.7045 8.496C38.7045 8.032 38.7605 7.564 38.8725 7.092C38.9925 6.612 39.1605 6.152 39.3765 5.712C39.5925 5.272 39.8605 4.88 40.1805 4.536C40.5005 4.184 40.8605 3.908 41.2605 3.708C41.6685 3.5 42.1165 3.396 42.6045 3.396C43.2445 3.396 43.7165 3.556 44.0205 3.876C44.3245 4.196 44.4765 4.58 44.4765 5.028C44.4765 5.38 44.3885 5.744 44.2125 6.12C44.0445 6.488 43.7925 6.832 43.4565 7.152C43.1285 7.472 42.7285 7.732 42.2565 7.932C41.7845 8.132 41.2485 8.232 40.6485 8.232C40.4325 8.232 40.2165 8.22 40.0005 8.196C40.0165 9.092 40.1845 9.772 40.5045 10.236C40.8245 10.692 41.2765 10.92 41.8605 10.92C42.2605 10.92 42.6125 10.824 42.9165 10.632C43.2205 10.432 43.4685 10.124 43.6605 9.708C43.7565 9.796 43.8285 9.904 43.8765 10.032C43.9245 10.152 43.9485 10.268 43.9485 10.38C43.9485 10.628 43.8725 10.844 43.7205 11.028C43.5685 11.204 43.3725 11.352 43.1325 11.472C42.9005 11.584 42.6485 11.668 42.3765 11.724C42.1125 11.78 41.8645 11.808 41.6325 11.808ZM40.5645 7.464C41.1485 7.464 41.6365 7.36 42.0285 7.152C42.4205 6.944 42.7165 6.684 42.9165 6.372C43.1165 6.052 43.2165 5.736 43.2165 5.424C43.2165 5.112 43.1205 4.848 42.9285 4.632C42.7365 4.408 42.4405 4.296 42.0405 4.296C41.6805 4.296 41.3765 4.4 41.1285 4.608C40.8885 4.808 40.6925 5.072 40.5405 5.4C40.3885 5.72 40.2725 6.06 40.1925 6.42C40.1125 6.78 40.0565 7.116 40.0245 7.428C40.2165 7.452 40.3965 7.464 40.5645 7.464ZM52.7927 11.808C52.2167 11.808 51.7327 11.66 51.3407 11.364C50.9567 11.068 50.6647 10.668 50.4647 10.164C50.2727 9.66 50.1767 9.104 50.1767 8.496C50.1767 8.032 50.2327 7.564 50.3447 7.092C50.4647 6.612 50.6327 6.152 50.8487 5.712C51.0647 5.272 51.3327 4.88 51.6527 4.536C51.9727 4.184 52.3327 3.908 52.7327 3.708C53.1407 3.5 53.5887 3.396 54.0767 3.396C54.6527 3.396 55.1327 3.544 55.5167 3.84C55.9087 4.136 56.2007 4.536 56.3927 5.04C56.5847 5.536 56.6807 6.092 56.6807 6.708C56.6807 7.172 56.6247 7.644 56.5127 8.124C56.4007 8.596 56.2327 9.052 56.0087 9.492C55.7927 9.932 55.5247 10.328 55.2047 10.68C54.8927 11.024 54.5327 11.3 54.1247 11.508C53.7247 11.708 53.2807 11.808 52.7927 11.808ZM53.3807 10.92C53.7087 10.92 53.9887 10.828 54.2207 10.644C54.4527 10.452 54.6447 10.204 54.7967 9.9C54.9487 9.596 55.0647 9.272 55.1447 8.928C55.2327 8.584 55.2927 8.252 55.3247 7.932C55.3647 7.612 55.3847 7.344 55.3847 7.128C55.3847 6.192 55.2087 5.488 54.8567 5.016C54.5127 4.536 54.0447 4.296 53.4527 4.296C53.1327 4.296 52.8567 4.392 52.6247 4.584C52.4007 4.768 52.2127 5.012 52.0607 5.316C51.9167 5.612 51.8007 5.932 51.7127 6.276C51.6247 6.62 51.5607 6.952 51.5207 7.272C51.4887 7.592 51.4727 7.86 51.4727 8.076C51.4727 9.012 51.6447 9.72 51.9887 10.2C52.3327 10.68 52.7967 10.92 53.3807 10.92ZM59.6655 14.28C59.3855 14.28 59.1575 14.164 58.9815 13.932C58.8135 13.708 58.7295 13.296 58.7295 12.696C58.7295 12.424 58.7455 12.064 58.7775 11.616C58.8175 11.168 58.8655 10.668 58.9215 10.116C58.9855 9.556 59.0535 8.98 59.1255 8.388C59.1975 7.796 59.2695 7.212 59.3415 6.636C59.4215 6.06 59.4935 5.532 59.5575 5.052C59.3255 5.06 59.0855 5.088 58.8375 5.136C58.5975 5.176 58.3855 5.252 58.2015 5.364C58.2015 5.084 58.2255 4.848 58.2735 4.656C58.3295 4.456 58.4615 4.304 58.6695 4.2C58.8855 4.096 59.2335 4.044 59.7135 4.044C59.8175 3.524 59.9655 3.024 60.1575 2.544C60.3575 2.056 60.5975 1.624 60.8775 1.248C61.1575 0.864003 61.4735 0.560003 61.8255 0.336003C62.1855 0.112003 62.5775 3.09944e-06 63.0015 3.09944e-06C64.1295 3.09944e-06 64.6935 0.360003 64.6935 1.08C64.6935 1.488 64.5095 1.82 64.1415 2.076C64.0455 1.668 63.8935 1.368 63.6855 1.176C63.4775 0.984003 63.1935 0.888003 62.8335 0.888003C62.5295 0.888003 62.2535 0.988003 62.0055 1.188C61.7575 1.388 61.5375 1.72 61.3455 2.184C61.1615 2.64 61.0055 3.26 60.8775 4.044C61.3655 4.044 61.7575 4.024 62.0535 3.984C62.3495 3.936 62.6015 3.84 62.8095 3.696C62.7695 4.072 62.6855 4.356 62.5575 4.548C62.4375 4.732 62.2335 4.856 61.9455 4.92C61.6655 4.984 61.2575 5.024 60.7215 5.04C60.6575 5.504 60.5855 6.048 60.5055 6.672C60.4255 7.296 60.3495 7.944 60.2775 8.616C60.2055 9.288 60.1455 9.936 60.0975 10.56C60.0575 11.184 60.0375 11.732 60.0375 12.204C60.0375 12.516 60.0655 12.812 60.1215 13.092C60.1775 13.38 60.3015 13.632 60.4935 13.848C60.3495 14.024 60.2015 14.14 60.0495 14.196C59.8975 14.252 59.7695 14.28 59.6655 14.28ZM68.453 14.856C68.157 14.856 67.913 14.724 67.721 14.46C67.529 14.204 67.433 13.724 67.433 13.02C67.433 12.652 67.465 12.204 67.529 11.676C67.593 11.156 67.665 10.568 67.745 9.912C67.833 9.256 67.909 8.548 67.973 7.788C68.037 7.028 68.069 6.236 68.069 5.412C68.069 5.124 68.057 4.844 68.033 4.572C68.009 4.292 67.937 4.036 67.817 3.804C67.905 3.716 68.029 3.648 68.189 3.6C68.357 3.552 68.497 3.528 68.609 3.528C68.881 3.528 69.085 3.62 69.221 3.804C69.365 3.988 69.437 4.316 69.437 4.788C69.437 5.092 69.425 5.376 69.401 5.64C69.377 5.896 69.341 6.18 69.293 6.492C69.245 6.804 69.177 7.188 69.089 7.644C69.609 6.308 70.125 5.268 70.637 4.524C71.157 3.772 71.637 3.396 72.077 3.396C72.413 3.396 72.729 3.512 73.025 3.744C73.321 3.976 73.561 4.344 73.745 4.848C73.929 5.352 74.021 6.012 74.021 6.828C74.021 7.404 73.957 7.984 73.829 8.568C73.701 9.152 73.505 9.688 73.241 10.176C72.977 10.656 72.641 11.044 72.233 11.34C71.825 11.628 71.341 11.772 70.781 11.772C70.445 11.772 70.081 11.712 69.689 11.592C69.305 11.464 68.997 11.304 68.765 11.112C68.749 11.312 68.733 11.512 68.717 11.712C68.709 11.92 68.705 12.128 68.705 12.336C68.705 12.72 68.733 13.096 68.789 13.464C68.853 13.84 69.013 14.16 69.269 14.424C69.125 14.6 68.977 14.716 68.825 14.772C68.681 14.828 68.557 14.856 68.453 14.856ZM70.685 10.956C71.133 10.956 71.513 10.788 71.825 10.452C72.137 10.116 72.373 9.664 72.533 9.096C72.693 8.528 72.773 7.896 72.773 7.2C72.773 6.752 72.737 6.336 72.665 5.952C72.601 5.568 72.493 5.26 72.341 5.028C72.189 4.788 71.993 4.668 71.753 4.668C71.561 4.668 71.325 4.82 71.045 5.124C70.773 5.428 70.489 5.852 70.193 6.396C69.905 6.932 69.637 7.552 69.389 8.256C69.149 8.96 68.969 9.712 68.849 10.512C69.121 10.664 69.409 10.776 69.713 10.848C70.025 10.92 70.349 10.956 70.685 10.956ZM77.6624 11.772C77.1184 11.772 76.6864 11.504 76.3664 10.968C76.0544 10.432 75.8984 9.696 75.8984 8.76C75.8984 8.008 75.9864 7.308 76.1624 6.66C76.3464 6.004 76.5984 5.432 76.9184 4.944C77.2384 4.456 77.6104 4.076 78.0344 3.804C78.4584 3.532 78.9184 3.396 79.4144 3.396C80.0944 3.396 80.6584 3.664 81.1064 4.2C81.1704 3.952 81.2504 3.776 81.3464 3.672C81.4504 3.568 81.5904 3.516 81.7664 3.516C82.0144 3.516 82.2304 3.62 82.4144 3.828C82.3424 4.02 82.2744 4.288 82.2104 4.632C82.1464 4.968 82.0904 5.348 82.0424 5.772C81.9944 6.188 81.9544 6.624 81.9224 7.08C81.8984 7.528 81.8864 7.96 81.8864 8.376C81.8864 9.096 81.9264 9.672 82.0064 10.104C82.0944 10.528 82.2384 10.908 82.4384 11.244C82.2064 11.54 81.9344 11.688 81.6224 11.688C81.2864 11.688 81.0304 11.472 80.8544 11.04C80.6784 10.608 80.5904 9.98 80.5904 9.156C80.5904 9.036 80.5944 8.892 80.6024 8.724C80.6184 8.548 80.6344 8.372 80.6504 8.196C80.6664 8.012 80.6784 7.856 80.6864 7.728C80.4144 8.496 80.0984 9.188 79.7384 9.804C79.3864 10.412 79.0264 10.892 78.6584 11.244C78.2984 11.596 77.9664 11.772 77.6624 11.772ZM78.0704 10.5C78.2544 10.5 78.4624 10.38 78.6944 10.14C78.9264 9.892 79.1664 9.564 79.4144 9.156C79.6704 8.748 79.9064 8.296 80.1224 7.8C80.3464 7.304 80.5384 6.8 80.6984 6.288C80.8584 5.776 80.9624 5.296 81.0104 4.848C80.4664 4.432 79.9504 4.224 79.4624 4.224C79.0144 4.224 78.6144 4.404 78.2624 4.764C77.9184 5.124 77.6464 5.624 77.4464 6.264C77.2544 6.896 77.1584 7.628 77.1584 8.46C77.1584 9.092 77.2384 9.592 77.3984 9.96C77.5664 10.32 77.7904 10.5 78.0704 10.5ZM86.3087 11.76C85.9087 11.76 85.5367 11.708 85.1927 11.604C84.8567 11.5 84.5847 11.344 84.3767 11.136C84.1687 10.92 84.0647 10.652 84.0647 10.332C84.0647 10.108 84.1207 9.912 84.2327 9.744C84.3527 9.576 84.4887 9.416 84.6407 9.264C84.7447 9.672 84.8967 10.004 85.0967 10.26C85.3047 10.508 85.5327 10.692 85.7807 10.812C86.0367 10.924 86.2887 10.98 86.5367 10.98C86.8887 10.98 87.1927 10.888 87.4487 10.704C87.7047 10.512 87.8327 10.256 87.8327 9.936C87.8327 9.632 87.7527 9.368 87.5927 9.144C87.4327 8.912 87.1967 8.672 86.8847 8.424C86.5727 8.168 86.1887 7.86 85.7327 7.5C85.4367 7.268 85.1967 7 85.0127 6.696C84.8287 6.392 84.7367 6.016 84.7367 5.568C84.7367 4.872 84.9847 4.336 85.4807 3.96C85.9847 3.584 86.6647 3.396 87.5207 3.396C87.9927 3.396 88.3807 3.476 88.6847 3.636C88.9887 3.796 89.1407 4.088 89.1407 4.512C89.1407 4.72 89.0767 4.912 88.9487 5.088C88.8207 5.256 88.7007 5.384 88.5887 5.472C88.4527 5.128 88.2567 4.836 88.0007 4.596C87.7527 4.356 87.4047 4.236 86.9567 4.236C86.6127 4.236 86.3407 4.324 86.1407 4.5C85.9487 4.676 85.8527 4.892 85.8527 5.148C85.8527 5.34 85.8847 5.512 85.9487 5.664C86.0127 5.816 86.1247 5.976 86.2847 6.144C86.4527 6.304 86.6767 6.5 86.9567 6.732C87.2367 6.964 87.5927 7.256 88.0247 7.608C88.3287 7.856 88.5647 8.128 88.7327 8.424C88.9007 8.712 88.9847 9.056 88.9847 9.456C88.9847 10.136 88.7567 10.692 88.3007 11.124C87.8447 11.548 87.1807 11.76 86.3087 11.76ZM92.7362 11.76C92.3362 11.76 91.9642 11.708 91.6202 11.604C91.2842 11.5 91.0122 11.344 90.8042 11.136C90.5962 10.92 90.4922 10.652 90.4922 10.332C90.4922 10.108 90.5482 9.912 90.6602 9.744C90.7802 9.576 90.9162 9.416 91.0682 9.264C91.1722 9.672 91.3242 10.004 91.5242 10.26C91.7322 10.508 91.9602 10.692 92.2082 10.812C92.4642 10.924 92.7162 10.98 92.9642 10.98C93.3162 10.98 93.6202 10.888 93.8762 10.704C94.1322 10.512 94.2602 10.256 94.2602 9.936C94.2602 9.632 94.1802 9.368 94.0202 9.144C93.8602 8.912 93.6242 8.672 93.3122 8.424C93.0002 8.168 92.6162 7.86 92.1602 7.5C91.8642 7.268 91.6242 7 91.4402 6.696C91.2562 6.392 91.1642 6.016 91.1642 5.568C91.1642 4.872 91.4122 4.336 91.9082 3.96C92.4122 3.584 93.0922 3.396 93.9482 3.396C94.4202 3.396 94.8082 3.476 95.1122 3.636C95.4162 3.796 95.5682 4.088 95.5682 4.512C95.5682 4.72 95.5042 4.912 95.3762 5.088C95.2482 5.256 95.1282 5.384 95.0162 5.472C94.8802 5.128 94.6842 4.836 94.4282 4.596C94.1802 4.356 93.8322 4.236 93.3842 4.236C93.0402 4.236 92.7682 4.324 92.5682 4.5C92.3762 4.676 92.2802 4.892 92.2802 5.148C92.2802 5.34 92.3122 5.512 92.3762 5.664C92.4402 5.816 92.5522 5.976 92.7122 6.144C92.8802 6.304 93.1042 6.5 93.3842 6.732C93.6642 6.964 94.0202 7.256 94.4522 7.608C94.7562 7.856 94.9922 8.128 95.1602 8.424C95.3282 8.712 95.4122 9.056 95.4122 9.456C95.4122 10.136 95.1842 10.692 94.7282 11.124C94.2722 11.548 93.6082 11.76 92.7362 11.76ZM99.6677 1.512C99.6677 1.6 99.6557 1.704 99.6317 1.824C99.6157 1.944 99.5837 2.084 99.5357 2.244C99.2397 2.428 98.9637 2.52 98.7077 2.52C98.4677 2.52 98.2997 2.476 98.2037 2.388C98.1077 2.292 98.0597 2.148 98.0597 1.956C98.0597 1.868 98.0677 1.768 98.0837 1.656C98.0997 1.544 98.1197 1.416 98.1437 1.272C98.4397 1.088 98.7157 0.996003 98.9717 0.996003C99.1557 0.996003 99.3157 1.036 99.4517 1.116C99.5957 1.196 99.6677 1.328 99.6677 1.512ZM98.5277 11.688C98.2477 11.688 98.0197 11.576 97.8437 11.352C97.6757 11.128 97.5917 10.712 97.5917 10.104C97.5917 9.632 97.6317 9.144 97.7117 8.64C97.7997 8.136 97.8837 7.612 97.9637 7.068C98.0517 6.524 98.0957 5.952 98.0957 5.352C98.0957 5.096 98.0837 4.832 98.0597 4.56C98.0357 4.28 97.9637 4.028 97.8437 3.804C97.9317 3.716 98.0597 3.648 98.2277 3.6C98.3957 3.552 98.5357 3.528 98.6477 3.528C98.8557 3.528 99.0397 3.596 99.1997 3.732C99.3677 3.868 99.4517 4.104 99.4517 4.44C99.4517 4.64 99.4237 4.94 99.3677 5.34C99.3117 5.74 99.2477 6.192 99.1757 6.696C99.1037 7.192 99.0397 7.696 98.9837 8.208C98.9277 8.72 98.8997 9.188 98.8997 9.612C98.8997 9.924 98.9237 10.224 98.9717 10.512C99.0277 10.792 99.1557 11.04 99.3557 11.256C99.2037 11.432 99.0517 11.548 98.8997 11.604C98.7477 11.66 98.6237 11.688 98.5277 11.688ZM104.072 11.808C103.496 11.808 103.012 11.66 102.62 11.364C102.236 11.068 101.944 10.668 101.744 10.164C101.552 9.66 101.456 9.104 101.456 8.496C101.456 8.032 101.512 7.564 101.624 7.092C101.744 6.612 101.912 6.152 102.128 5.712C102.344 5.272 102.612 4.88 102.932 4.536C103.252 4.184 103.612 3.908 104.012 3.708C104.42 3.5 104.868 3.396 105.356 3.396C105.932 3.396 106.412 3.544 106.796 3.84C107.188 4.136 107.48 4.536 107.672 5.04C107.864 5.536 107.96 6.092 107.96 6.708C107.96 7.172 107.904 7.644 107.792 8.124C107.68 8.596 107.512 9.052 107.288 9.492C107.072 9.932 106.804 10.328 106.484 10.68C106.172 11.024 105.812 11.3 105.404 11.508C105.004 11.708 104.56 11.808 104.072 11.808ZM104.66 10.92C104.988 10.92 105.268 10.828 105.5 10.644C105.732 10.452 105.924 10.204 106.076 9.9C106.228 9.596 106.344 9.272 106.424 8.928C106.512 8.584 106.572 8.252 106.604 7.932C106.644 7.612 106.664 7.344 106.664 7.128C106.664 6.192 106.488 5.488 106.136 5.016C105.792 4.536 105.324 4.296 104.732 4.296C104.412 4.296 104.136 4.392 103.904 4.584C103.68 4.768 103.492 5.012 103.34 5.316C103.196 5.612 103.08 5.932 102.992 6.276C102.904 6.62 102.84 6.952 102.8 7.272C102.768 7.592 102.752 7.86 102.752 8.076C102.752 9.012 102.924 9.72 103.268 10.2C103.612 10.68 104.076 10.92 104.66 10.92ZM110.813 11.688C110.493 11.688 110.285 11.576 110.189 11.352C110.093 11.128 110.045 10.84 110.045 10.488C110.045 10.064 110.081 9.58 110.153 9.036C110.233 8.492 110.309 7.912 110.381 7.296C110.461 6.672 110.501 6.044 110.501 5.412C110.501 5.124 110.489 4.844 110.465 4.572C110.441 4.292 110.369 4.036 110.249 3.804C110.337 3.716 110.461 3.648 110.621 3.6C110.789 3.552 110.929 3.528 111.041 3.528C111.313 3.528 111.517 3.62 111.653 3.804C111.797 3.988 111.869 4.316 111.869 4.788C111.869 5.196 111.833 5.656 111.761 6.168C111.689 6.68 111.609 7.172 111.521 7.644C111.729 7.164 111.945 6.676 112.169 6.18C112.401 5.684 112.645 5.232 112.901 4.824C113.157 4.408 113.421 4.076 113.693 3.828C113.965 3.572 114.245 3.444 114.533 3.444C115.469 3.444 115.937 4.136 115.937 5.52C115.937 6.112 115.889 6.688 115.793 7.248C115.705 7.8 115.661 8.372 115.661 8.964C115.661 9.196 115.673 9.46 115.697 9.756C115.729 10.052 115.781 10.336 115.853 10.608C115.933 10.872 116.045 11.088 116.189 11.256C116.045 11.408 115.901 11.52 115.757 11.592C115.621 11.656 115.485 11.688 115.349 11.688C115.021 11.688 114.773 11.488 114.605 11.088C114.437 10.68 114.353 10.104 114.353 9.36C114.353 8.848 114.385 8.352 114.449 7.872C114.521 7.384 114.589 6.94 114.653 6.54C114.717 6.132 114.749 5.792 114.749 5.52C114.749 5.264 114.701 5.068 114.605 4.932C114.509 4.788 114.373 4.716 114.197 4.716C114.013 4.716 113.813 4.82 113.597 5.028C113.381 5.228 113.165 5.5 112.949 5.844C112.741 6.188 112.541 6.572 112.349 6.996C112.157 7.412 111.985 7.836 111.833 8.268C111.689 8.7 111.573 9.108 111.485 9.492C111.397 9.868 111.353 10.192 111.353 10.464C111.353 10.712 111.373 10.932 111.413 11.124C111.461 11.316 111.509 11.448 111.557 11.52C111.405 11.576 111.269 11.616 111.149 11.64C111.029 11.672 110.917 11.688 110.813 11.688Z" fill="black"/>
</svg>
