<svg width="99" height="13" viewBox="0 0 99 13" fill="none" xmlns="http://www.w3.org/2000/svg">
<path d="M1.24797 12.448C0.906637 12.448 0.623971 12.3786 0.399971 12.24C0.175971 12.1013 0.0479707 11.9093 0.0159706 11.664C0.005304 11.6106 -2.93255e-05 11.5573 -2.93255e-05 11.504C-2.93255e-05 11.4613 -2.93255e-05 11.4133 -2.93255e-05 11.36C-2.93255e-05 10.9653 0.0746373 10.5013 0.223971 9.96798C0.373304 9.43464 0.565304 8.87998 0.799971 8.30397C1.03464 7.72798 1.27464 7.18931 1.51997 6.68797C1.6053 6.50664 1.72264 6.24531 1.87197 5.90398C2.03197 5.56264 2.18664 5.20531 2.33597 4.83197C2.49597 4.44797 2.6293 4.11197 2.73597 3.82397C2.84264 3.52531 2.8853 3.32797 2.86397 3.23197V3.15197C2.86397 3.02397 2.9653 2.95997 3.16797 2.95997C3.40264 2.95997 3.63197 3.00797 3.85597 3.10397C4.07997 3.21064 4.25064 3.35997 4.36797 3.55197C4.4853 3.74397 4.54397 3.94664 4.54397 4.15998C4.54397 4.33064 4.5013 4.51197 4.41597 4.70397L3.96797 5.64797C4.10664 5.42397 4.26664 5.17331 4.44797 4.89597C4.6293 4.61864 4.81064 4.34664 4.99197 4.07997C5.18397 3.80264 5.3493 3.56797 5.48797 3.37597C5.6373 3.17331 5.74397 3.04531 5.80797 2.99197C5.90397 2.90664 6.03197 2.86397 6.19197 2.86397C6.3093 2.86397 6.43197 2.88531 6.55997 2.92797C6.68797 2.95997 6.82664 3.00264 6.97597 3.05597C7.1253 3.10931 7.22664 3.21064 7.27997 3.35997C7.34397 3.49864 7.37597 3.66931 7.37597 3.87197C7.37597 4.12797 7.32264 4.44797 7.21597 4.83197C7.11997 5.20531 6.98664 5.61064 6.81597 6.04797C6.6453 6.47464 6.4533 6.90131 6.23997 7.32798C6.02664 7.75464 5.80797 8.13864 5.58397 8.47997C5.81864 8.49064 6.04264 8.45864 6.25597 8.38398C6.47997 8.30931 6.6773 8.18131 6.84797 7.99997C7.0613 7.76531 7.2533 7.47731 7.42397 7.13597C7.6053 6.78397 7.7653 6.46931 7.90397 6.19197C7.93597 6.12797 7.98397 6.09597 8.04797 6.09597C8.12264 6.09597 8.18664 6.13331 8.23997 6.20797C8.2933 6.28264 8.29864 6.36264 8.25597 6.44797C8.1493 6.66131 8.0213 6.91197 7.87197 7.19998C7.7333 7.47731 7.57864 7.74397 7.40797 7.99997C7.2373 8.25598 7.05064 8.45864 6.84797 8.60798C6.6773 8.74664 6.50664 8.83731 6.33597 8.87998C6.1653 8.92264 5.9893 8.94398 5.80797 8.94398C5.72264 8.94398 5.6373 8.94398 5.55197 8.94398C5.46664 8.93331 5.37597 8.92264 5.27997 8.91198C5.1093 9.13598 4.9493 9.30664 4.79997 9.42398C4.63997 9.54131 4.4693 9.63731 4.28797 9.71198C4.10664 9.78664 3.9093 9.82398 3.69597 9.82398C3.0773 9.82398 2.65597 9.48798 2.43197 8.81598C2.23997 9.29598 2.07464 9.77064 1.93597 10.24C1.7973 10.7093 1.7013 11.1466 1.64797 11.552C1.6373 11.6053 1.62664 11.6586 1.61597 11.712C1.61597 11.776 1.61597 11.8346 1.61597 11.888C1.61597 12.0906 1.65864 12.2186 1.74397 12.272C1.75464 12.2826 1.75997 12.2986 1.75997 12.32C1.75997 12.3946 1.69064 12.432 1.55197 12.432C1.49864 12.4426 1.4453 12.448 1.39197 12.448C1.3493 12.448 1.3013 12.448 1.24797 12.448ZM3.99997 8.11198C4.1493 7.84531 4.28797 7.55198 4.41597 7.23198C4.54397 6.90131 4.6613 6.58131 4.76797 6.27198C4.87464 5.96264 4.95997 5.69597 5.02397 5.47197C5.09864 5.23731 5.14664 5.08264 5.16797 5.00798C5.21064 4.85864 5.24264 4.72531 5.26397 4.60798C5.29597 4.47997 5.3173 4.37331 5.32797 4.28797C5.14664 4.52264 4.92264 4.83731 4.65597 5.23198C4.3893 5.62664 4.11197 6.04264 3.82397 6.47997C3.54664 6.91731 3.29064 7.32797 3.05597 7.71198L3.91997 8.07998C3.9413 8.10131 3.96797 8.11198 3.99997 8.11198ZM3.16797 8.94398C3.26397 8.94398 3.35997 8.90664 3.45597 8.83198C3.55197 8.74664 3.6533 8.63464 3.75997 8.49598C3.59997 8.42131 3.4453 8.34664 3.29597 8.27198C3.1573 8.18664 3.0133 8.10131 2.86397 8.01597L2.71997 8.25598C2.7413 8.34131 2.76797 8.42664 2.79997 8.51198C2.83197 8.59731 2.8693 8.67731 2.91197 8.75198C2.9973 8.87998 3.08264 8.94398 3.16797 8.94398ZM8.97297 9.80798C8.4503 9.80798 8.0823 9.69064 7.86897 9.45598C7.6663 9.21064 7.56497 8.90664 7.56497 8.54397C7.56497 8.15998 7.6343 7.74931 7.77297 7.31198C7.9223 6.86398 8.08764 6.45331 8.26897 6.07997C8.46097 5.69597 8.6103 5.40264 8.71697 5.19998C9.1543 4.38931 9.65564 3.79731 10.221 3.42397C10.797 3.05064 11.4316 2.86397 12.125 2.86397C12.3703 2.86397 12.6583 2.87464 12.989 2.89597C13.3196 2.91731 13.6556 2.92797 13.997 2.92797C14.1676 2.92797 14.333 2.92264 14.493 2.91197C14.653 2.90131 14.8076 2.89597 14.957 2.89597H15.021C15.2023 2.89597 15.293 2.92797 15.293 2.99197C15.293 3.03464 15.229 3.08264 15.101 3.13597C14.9623 3.18931 14.797 3.37064 14.605 3.67998C14.413 3.97864 14.2156 4.34131 14.013 4.76797C13.8103 5.19464 13.6183 5.62664 13.437 6.06397C13.341 6.30931 13.213 6.63997 13.053 7.05597C12.893 7.46131 12.7756 7.87731 12.701 8.30397C12.6903 8.37864 12.6796 8.44798 12.669 8.51198C12.669 8.56531 12.669 8.61864 12.669 8.67198C12.669 8.93864 12.7383 9.07198 12.877 9.07198C13.0476 9.07198 13.2236 8.98131 13.405 8.79998C13.5863 8.61864 13.7623 8.39998 13.933 8.14398C14.0823 7.91998 14.2316 7.66931 14.381 7.39197C14.5303 7.11464 14.6636 6.85864 14.781 6.62398C14.8983 6.37864 14.9836 6.20797 15.037 6.11197C15.069 6.04797 15.1116 6.01597 15.165 6.01597C15.229 6.01597 15.2876 6.06397 15.341 6.15997C15.3943 6.24531 15.3996 6.33064 15.357 6.41597C15.1543 6.81064 14.9356 7.23197 14.701 7.67998C14.4663 8.12798 14.2103 8.53331 13.933 8.89598C13.4636 9.50398 12.9196 9.80798 12.301 9.80798C11.8316 9.80798 11.485 9.66398 11.261 9.37598C11.0476 9.08798 10.941 8.74131 10.941 8.33598C10.941 8.15464 10.957 7.97864 10.989 7.80798C10.8716 7.99998 10.7276 8.25064 10.557 8.55998C10.3863 8.85864 10.189 9.13064 9.96497 9.37598C9.75164 9.62131 9.51164 9.75998 9.24497 9.79198C9.2023 9.79198 9.15964 9.79198 9.11697 9.79198C9.0743 9.80264 9.0263 9.80798 8.97297 9.80798ZM9.56497 8.99198C9.67164 8.99198 9.8103 8.89598 9.98097 8.70398C10.1623 8.51198 10.3436 8.27198 10.525 7.98398C10.717 7.68531 10.8823 7.38664 11.021 7.08798C11.053 7.00264 11.1276 6.82131 11.245 6.54397C11.373 6.25597 11.5116 5.92531 11.661 5.55197C11.821 5.16797 11.981 4.78397 12.141 4.39997C12.301 4.01597 12.4396 3.67997 12.557 3.39197C12.5676 3.35997 12.573 3.32264 12.573 3.27997C12.573 3.21597 12.541 3.18397 12.477 3.18397C12.413 3.18397 12.3383 3.21064 12.253 3.26397C12.1676 3.30664 12.0876 3.35464 12.013 3.40797C11.8743 3.51464 11.693 3.73864 11.469 4.07997C11.2556 4.41064 11.0263 4.79997 10.781 5.24797C10.5463 5.69597 10.3223 6.15464 10.109 6.62398C9.89564 7.08264 9.71964 7.50397 9.58097 7.88797C9.45297 8.26131 9.38897 8.54398 9.38897 8.73598C9.38897 8.90664 9.44764 8.99198 9.56497 8.99198ZM16.6346 9.82398C16.1973 9.82398 15.8506 9.75998 15.5946 9.63198C15.3493 9.50398 15.1679 9.31731 15.0506 9.07198C14.9439 8.82664 14.8906 8.53864 14.8906 8.20798C14.8906 7.64264 15.0186 7.00264 15.2746 6.28797C15.5413 5.57331 15.8506 4.89064 16.2026 4.23997C16.3413 3.98397 16.5066 3.68531 16.6986 3.34397C16.9013 2.99197 17.1253 2.64531 17.3706 2.30397C17.6266 1.96264 17.8933 1.66931 18.1706 1.42397C18.4586 1.16797 18.7519 1.01331 19.0506 0.959974C19.2319 0.927975 19.4079 0.911975 19.5786 0.911975C19.8559 0.911975 20.0639 0.938642 20.2026 0.991975C20.4479 1.08797 20.5706 1.18397 20.5706 1.27997C20.5706 1.34397 20.5173 1.37597 20.4106 1.37597C20.3679 1.37597 20.3093 1.40264 20.2346 1.45597C20.1599 1.49864 20.0906 1.55197 20.0266 1.61597C19.5573 2.08531 19.0399 2.78397 18.4746 3.71197C18.0159 4.45864 17.6319 5.19464 17.3226 5.91997C17.0133 6.63464 16.7839 7.37064 16.6346 8.12797C16.6026 8.31998 16.5866 8.47998 16.5866 8.60798C16.5866 8.83198 16.6239 8.99198 16.6986 9.08798C16.7733 9.18398 16.8639 9.23198 16.9706 9.23198C17.1839 9.23198 17.4293 9.10931 17.7066 8.86398C17.9946 8.61864 18.2239 8.35198 18.3946 8.06397C18.6186 7.75464 18.8159 7.43464 18.9866 7.10398C19.1679 6.76264 19.3173 6.47464 19.4346 6.23997C19.4773 6.16531 19.5359 6.12797 19.6106 6.12797C19.6746 6.12797 19.7333 6.15997 19.7866 6.22397C19.8399 6.28797 19.8453 6.36264 19.8026 6.44797C19.6426 6.76797 19.4399 7.14664 19.1946 7.58398C18.9599 8.02131 18.6986 8.41064 18.4106 8.75198C18.1439 9.07198 17.8559 9.33331 17.5466 9.53598C17.2479 9.72798 16.9439 9.82398 16.6346 9.82398ZM21.5908 9.95198C20.8122 9.95198 20.2468 9.77598 19.8948 9.42398C19.5535 9.07198 19.3828 8.60798 19.3828 8.03198C19.3828 7.59464 19.4735 7.11464 19.6548 6.59197C19.7935 6.16531 19.9802 5.73331 20.2148 5.29597C20.4495 4.84797 20.7215 4.43731 21.0308 4.06397C21.3402 3.67997 21.6815 3.37597 22.0548 3.15197C22.4282 2.91731 22.8228 2.79997 23.2388 2.79997C23.7722 2.79997 24.2042 2.88531 24.5348 3.05597C24.8762 3.21597 25.0468 3.48264 25.0468 3.85597C25.0468 4.13331 24.9348 4.47997 24.7108 4.89597C24.4122 5.47197 23.9748 5.94664 23.3988 6.31997C22.8228 6.69331 22.1775 6.90664 21.4628 6.95998C21.3028 7.39731 21.2068 7.75464 21.1748 8.03198C21.1642 8.08531 21.1588 8.13864 21.1588 8.19197C21.1588 8.23464 21.1588 8.28264 21.1588 8.33598C21.1588 8.68798 21.2388 8.94398 21.3988 9.10398C21.5588 9.25331 21.7562 9.32798 21.9908 9.32798C22.4282 9.32798 22.8122 9.21598 23.1428 8.99198C23.4735 8.76798 23.7615 8.48531 24.0068 8.14398C24.2628 7.80264 24.4815 7.46131 24.6628 7.11998C24.7695 6.92798 24.8602 6.75197 24.9348 6.59197C25.0095 6.42131 25.0682 6.29864 25.1108 6.22397C25.1642 6.13864 25.2228 6.09597 25.2868 6.09597C25.3508 6.09597 25.4095 6.13331 25.4628 6.20797C25.5162 6.27197 25.5215 6.34664 25.4788 6.43197C25.3402 6.70931 25.1482 7.07731 24.9028 7.53597C24.6575 7.99464 24.3802 8.39998 24.0708 8.75198C23.7295 9.15731 23.3615 9.46131 22.9668 9.66398C22.5828 9.85598 22.1242 9.95198 21.5908 9.95198ZM21.6708 6.49598C22.1508 6.31464 22.5722 5.98931 22.9348 5.51997C23.3082 5.05064 23.5588 4.53331 23.6868 3.96797C23.6975 3.91464 23.7028 3.86664 23.7028 3.82397C23.7135 3.78131 23.7188 3.73864 23.7188 3.69597C23.7188 3.48264 23.6548 3.37597 23.5268 3.37597C23.4202 3.37597 23.3082 3.45064 23.1908 3.59997C23.0202 3.80264 22.8388 4.07997 22.6468 4.43197C22.4548 4.77331 22.2842 5.10931 22.1348 5.43997C21.9855 5.77064 21.8735 6.02131 21.7988 6.19197L21.6708 6.49598ZM26.4386 9.83998C26.0546 9.83998 25.7079 9.73331 25.3986 9.51998C25.0893 9.29598 24.9346 8.93864 24.9346 8.44798C24.9346 8.06398 25.0093 7.59464 25.1586 7.03997C25.3079 6.48531 25.5053 5.91997 25.7506 5.34398C25.9959 4.75731 26.2626 4.22931 26.5506 3.75997H25.8626C25.7986 3.75997 25.7666 3.73331 25.7666 3.67998C25.7666 3.63731 25.7933 3.58931 25.8466 3.53597C25.8999 3.47197 25.9639 3.42931 26.0386 3.40797C26.2093 3.35464 26.4279 3.25864 26.6946 3.11997C26.9719 2.97064 27.2599 2.79997 27.5586 2.60797C27.8573 2.41597 28.1399 2.22397 28.4066 2.03197C28.6733 1.83997 28.8866 1.67464 29.0466 1.53597C29.1426 1.45064 29.2439 1.39197 29.3506 1.35997C29.4679 1.32797 29.5799 1.31197 29.6866 1.31197C29.8679 1.31197 30.0066 1.34397 30.1026 1.40797C30.1986 1.47197 30.1986 1.53597 30.1026 1.59997C30.0173 1.65331 29.8999 1.78664 29.7506 1.99997C29.6013 2.21331 29.4466 2.44797 29.2866 2.70397C29.1373 2.95997 29.0039 3.18931 28.8866 3.39197H30.1026C30.1239 3.39197 30.1346 3.40797 30.1346 3.43997C30.1346 3.49331 30.1133 3.56264 30.0706 3.64797C30.0279 3.72264 29.9853 3.75997 29.9426 3.75997H28.6786C28.4653 4.13331 28.2306 4.55997 27.9746 5.03997C27.7186 5.51997 27.4733 6.01064 27.2386 6.51198C27.0146 7.00264 26.8279 7.46131 26.6786 7.88797C26.5293 8.30398 26.4546 8.63464 26.4546 8.87998C26.4546 9.14664 26.5773 9.27998 26.8226 9.27998C27.0786 9.27998 27.3666 9.15731 27.6866 8.91198C27.9533 8.68798 28.2039 8.41064 28.4386 8.07998C28.6626 7.77064 28.8599 7.45064 29.0306 7.11998C29.2119 6.78931 29.3613 6.50664 29.4786 6.27198C29.5213 6.19731 29.5799 6.15997 29.6546 6.15997C29.7293 6.15997 29.7879 6.19197 29.8306 6.25598C29.8839 6.30931 29.8893 6.37864 29.8466 6.46397C29.6866 6.78397 29.4839 7.15731 29.2386 7.58398C28.9933 8.01064 28.7319 8.39998 28.4546 8.75198C28.2306 9.02931 28.0119 9.24264 27.7986 9.39198C27.5959 9.53064 27.3773 9.63731 27.1426 9.71198C26.9186 9.79731 26.6839 9.83998 26.4386 9.83998ZM30.8211 9.83998C30.4371 9.83998 30.0904 9.73331 29.7811 9.51998C29.4718 9.29598 29.3171 8.93864 29.3171 8.44798C29.3171 8.06398 29.3918 7.59464 29.5411 7.03997C29.6904 6.48531 29.8878 5.91997 30.1331 5.34398C30.3784 4.75731 30.6451 4.22931 30.9331 3.75997H30.2451C30.1811 3.75997 30.1491 3.73331 30.1491 3.67998C30.1491 3.63731 30.1758 3.58931 30.2291 3.53597C30.2824 3.47197 30.3464 3.42931 30.4211 3.40797C30.5918 3.35464 30.8104 3.25864 31.0771 3.11997C31.3544 2.97064 31.6424 2.79997 31.9411 2.60797C32.2398 2.41597 32.5224 2.22397 32.7891 2.03197C33.0558 1.83997 33.2691 1.67464 33.4291 1.53597C33.5251 1.45064 33.6264 1.39197 33.7331 1.35997C33.8504 1.32797 33.9624 1.31197 34.0691 1.31197C34.2504 1.31197 34.3891 1.34397 34.4851 1.40797C34.5811 1.47197 34.5811 1.53597 34.4851 1.59997C34.3998 1.65331 34.2824 1.78664 34.1331 1.99997C33.9838 2.21331 33.8291 2.44797 33.6691 2.70397C33.5198 2.95997 33.3864 3.18931 33.2691 3.39197H34.4851C34.5064 3.39197 34.5171 3.40797 34.5171 3.43997C34.5171 3.49331 34.4958 3.56264 34.4531 3.64797C34.4104 3.72264 34.3678 3.75997 34.3251 3.75997H33.0611C32.8478 4.13331 32.6131 4.55997 32.3571 5.03997C32.1011 5.51997 31.8558 6.01064 31.6211 6.51198C31.3971 7.00264 31.2104 7.46131 31.0611 7.88797C30.9118 8.30398 30.8371 8.63464 30.8371 8.87998C30.8371 9.14664 30.9598 9.27998 31.2051 9.27998C31.4611 9.27998 31.7491 9.15731 32.0691 8.91198C32.3358 8.68798 32.5864 8.41064 32.8211 8.07998C33.0451 7.77064 33.2424 7.45064 33.4131 7.11998C33.5944 6.78931 33.7438 6.50664 33.8611 6.27198C33.9038 6.19731 33.9624 6.15997 34.0371 6.15997C34.1118 6.15997 34.1704 6.19197 34.2131 6.25598C34.2664 6.30931 34.2718 6.37864 34.2291 6.46397C34.0691 6.78397 33.8664 7.15731 33.6211 7.58398C33.3758 8.01064 33.1144 8.39998 32.8371 8.75198C32.6131 9.02931 32.3944 9.24264 32.1811 9.39198C31.9784 9.53064 31.7598 9.63731 31.5251 9.71198C31.3011 9.79731 31.0664 9.83998 30.8211 9.83998ZM36.0196 9.95198C35.2409 9.95198 34.6756 9.77598 34.3236 9.42398C33.9823 9.07198 33.8116 8.60798 33.8116 8.03198C33.8116 7.59464 33.9023 7.11464 34.0836 6.59197C34.2223 6.16531 34.4089 5.73331 34.6436 5.29597C34.8783 4.84797 35.1503 4.43731 35.4596 4.06397C35.7689 3.67997 36.1103 3.37597 36.4836 3.15197C36.8569 2.91731 37.2516 2.79997 37.6676 2.79997C38.2009 2.79997 38.6329 2.88531 38.9636 3.05597C39.3049 3.21597 39.4756 3.48264 39.4756 3.85597C39.4756 4.13331 39.3636 4.47997 39.1396 4.89597C38.8409 5.47197 38.4036 5.94664 37.8276 6.31997C37.2516 6.69331 36.6063 6.90664 35.8916 6.95998C35.7316 7.39731 35.6356 7.75464 35.6036 8.03198C35.5929 8.08531 35.5876 8.13864 35.5876 8.19197C35.5876 8.23464 35.5876 8.28264 35.5876 8.33598C35.5876 8.68798 35.6676 8.94398 35.8276 9.10398C35.9876 9.25331 36.1849 9.32798 36.4196 9.32798C36.8569 9.32798 37.2409 9.21598 37.5716 8.99198C37.9023 8.76798 38.1903 8.48531 38.4356 8.14398C38.6916 7.80264 38.9103 7.46131 39.0916 7.11998C39.1983 6.92798 39.2889 6.75197 39.3636 6.59197C39.4383 6.42131 39.4969 6.29864 39.5396 6.22397C39.5929 6.13864 39.6516 6.09597 39.7156 6.09597C39.7796 6.09597 39.8383 6.13331 39.8916 6.20797C39.9449 6.27197 39.9503 6.34664 39.9076 6.43197C39.7689 6.70931 39.5769 7.07731 39.3316 7.53597C39.0863 7.99464 38.8089 8.39998 38.4996 8.75198C38.1583 9.15731 37.7903 9.46131 37.3956 9.66398C37.0116 9.85598 36.5529 9.95198 36.0196 9.95198ZM36.0996 6.49598C36.5796 6.31464 37.0009 5.98931 37.3636 5.51997C37.7369 5.05064 37.9876 4.53331 38.1156 3.96797C38.1263 3.91464 38.1316 3.86664 38.1316 3.82397C38.1423 3.78131 38.1476 3.73864 38.1476 3.69597C38.1476 3.48264 38.0836 3.37597 37.9556 3.37597C37.8489 3.37597 37.7369 3.45064 37.6196 3.59997C37.4489 3.80264 37.2676 4.07997 37.0756 4.43197C36.8836 4.77331 36.7129 5.10931 36.5636 5.43997C36.4143 5.77064 36.3023 6.02131 36.2276 6.19197L36.0996 6.49598ZM44.846 9.82398C44.1633 9.82398 43.63 9.71198 43.246 9.48798C42.862 9.26398 42.67 8.83198 42.67 8.19197C42.67 7.74397 42.7393 7.27464 42.878 6.78397C43.0273 6.28264 43.2353 5.79731 43.502 5.32797C43.7686 4.85864 44.0833 4.43197 44.446 4.04798C44.8086 3.66397 45.2086 3.35997 45.646 3.13597C46.0833 2.90131 46.5473 2.78397 47.038 2.78397C47.358 2.78397 47.662 2.81064 47.95 2.86397C48.238 2.91731 48.4726 3.03997 48.654 3.23197C48.8353 3.41331 48.926 3.70131 48.926 4.09597C48.926 4.51197 48.814 5.05064 48.59 5.71198C48.366 6.37331 48.062 7.01864 47.678 7.64797C47.6566 7.73331 47.646 7.81864 47.646 7.90398C47.646 8.02131 47.6673 8.13864 47.71 8.25598C47.7633 8.37331 47.854 8.43198 47.982 8.43198C48.1526 8.43198 48.3286 8.31464 48.51 8.07998C48.702 7.81331 48.8993 7.49331 49.102 7.11998C49.3046 6.74664 49.4593 6.44264 49.566 6.20797C49.5873 6.14397 49.6353 6.11197 49.71 6.11197C49.7846 6.11197 49.8486 6.14397 49.902 6.20797C49.966 6.27197 49.9713 6.34664 49.918 6.43197C49.8326 6.59197 49.7206 6.81597 49.582 7.10398C49.4433 7.38131 49.2833 7.66397 49.102 7.95197C48.9206 8.23998 48.7233 8.46931 48.51 8.63998C48.35 8.76798 48.1793 8.83198 47.998 8.83198C47.7846 8.83198 47.6246 8.78398 47.518 8.68798C47.4113 8.58131 47.326 8.43198 47.262 8.23997C46.9206 8.69864 46.542 9.07731 46.126 9.37598C45.71 9.67464 45.2833 9.82398 44.846 9.82398ZM44.542 9.32798C44.6593 9.32798 44.8193 9.17331 45.022 8.86398C45.2246 8.55464 45.4433 8.15998 45.678 7.67998C45.9126 7.18931 46.142 6.69331 46.366 6.19197C46.4086 6.10664 46.478 5.95197 46.574 5.72797C46.67 5.49331 46.7713 5.23731 46.878 4.95997C46.9846 4.67197 47.0753 4.39464 47.15 4.12797C47.2246 3.86131 47.262 3.64797 47.262 3.48797C47.262 3.30664 47.2086 3.21597 47.102 3.21597C47.006 3.21597 46.8833 3.31197 46.734 3.50397C46.5846 3.68531 46.4193 3.92531 46.238 4.22397C46.0566 4.52264 45.8806 4.84264 45.71 5.18397C45.5393 5.52531 45.39 5.84531 45.262 6.14398C45.134 6.44264 45.0006 6.77864 44.862 7.15197C44.7233 7.52531 44.606 7.88264 44.51 8.22398C44.4246 8.55464 44.382 8.82131 44.382 9.02398C44.382 9.22664 44.4353 9.32798 44.542 9.32798ZM50.1943 11.504C49.693 11.504 49.3517 11.3386 49.1703 11.008C48.9997 10.6773 48.9143 10.2933 48.9143 9.85598C48.925 9.39731 49.0103 8.86398 49.1703 8.25598C49.341 7.63731 49.5543 6.99731 49.8103 6.33597C50.077 5.66397 50.3543 5.02397 50.6423 4.41597H50.3383C50.2743 4.41597 50.2423 4.38397 50.2423 4.31997C50.2423 4.26664 50.269 4.20797 50.3223 4.14397C50.3863 4.07997 50.4557 4.04798 50.5303 4.04798H50.8023C50.9943 3.67464 51.181 3.32797 51.3623 3.00797C51.5437 2.67731 51.709 2.39464 51.8583 2.15997C52.125 1.74397 52.3917 1.43997 52.6583 1.24797C52.9357 1.05597 53.3197 0.959974 53.8103 0.959974C54.269 0.959974 54.5837 0.981308 54.7543 1.02397C54.925 1.05597 55.0103 1.10931 55.0103 1.18397C55.0103 1.26931 54.9197 1.37597 54.7383 1.50397C54.557 1.63197 54.397 1.77597 54.2583 1.93597C54.1197 2.08531 53.9277 2.35197 53.6823 2.73597C53.437 3.10931 53.1757 3.54664 52.8983 4.04798H54.4983C54.5197 4.04798 54.5303 4.06398 54.5303 4.09597C54.5303 4.13864 54.509 4.20264 54.4663 4.28797C54.4237 4.37331 54.381 4.41597 54.3383 4.41597H52.7063L52.3223 5.15197C52.4717 5.36531 52.5783 5.64264 52.6423 5.98397C52.717 6.32531 52.7543 6.69331 52.7543 7.08798C52.7543 7.54664 52.7063 8.02131 52.6103 8.51198C52.525 8.99198 52.3917 9.44531 52.2103 9.87198C52.029 10.2986 51.8103 10.6506 51.5543 10.928C51.2983 11.216 50.9997 11.392 50.6583 11.456C50.4877 11.488 50.333 11.504 50.1943 11.504ZM50.7063 10.912C50.8343 10.912 50.957 10.8266 51.0743 10.656C51.2983 10.3466 51.4903 9.97331 51.6503 9.53598C51.821 9.09864 51.9437 8.73064 52.0183 8.43198C52.0717 8.21864 52.1197 7.96264 52.1623 7.66398C52.205 7.36531 52.2263 7.06131 52.2263 6.75198C52.2263 6.35731 52.1783 5.99464 52.0823 5.66397C51.9543 5.93064 51.7997 6.27197 51.6183 6.68797C51.437 7.09331 51.261 7.52531 51.0903 7.98398C50.9197 8.44264 50.7757 8.89064 50.6583 9.32798C50.541 9.75464 50.4823 10.128 50.4823 10.448C50.4823 10.7573 50.557 10.912 50.7063 10.912ZM56.5023 12.448C56.161 12.448 55.8783 12.3786 55.6543 12.24C55.4303 12.1013 55.3023 11.9093 55.2703 11.664C55.2597 11.6106 55.2543 11.5573 55.2543 11.504C55.2543 11.4613 55.2543 11.4133 55.2543 11.36C55.2543 10.9653 55.329 10.5013 55.4783 9.96798C55.6277 9.43464 55.8197 8.87998 56.0543 8.30397C56.289 7.72798 56.529 7.18931 56.7743 6.68797C56.8597 6.50664 56.977 6.24531 57.1263 5.90398C57.2863 5.56264 57.441 5.20531 57.5903 4.83197C57.7503 4.44797 57.8837 4.11197 57.9903 3.82397C58.097 3.52531 58.1397 3.32797 58.1183 3.23197V3.15197C58.1183 3.02397 58.2197 2.95997 58.4223 2.95997C58.657 2.95997 58.8863 3.00797 59.1103 3.10397C59.3343 3.21064 59.505 3.35997 59.6223 3.55197C59.7397 3.74397 59.7983 3.94664 59.7983 4.15998C59.7983 4.33064 59.7557 4.51197 59.6703 4.70397L59.2223 5.64797C59.361 5.42397 59.521 5.17331 59.7023 4.89597C59.8837 4.61864 60.065 4.34664 60.2463 4.07997C60.4383 3.80264 60.6037 3.56797 60.7423 3.37597C60.8917 3.17331 60.9983 3.04531 61.0623 2.99197C61.1583 2.90664 61.2863 2.86397 61.4463 2.86397C61.5637 2.86397 61.6863 2.88531 61.8143 2.92797C61.9423 2.95997 62.081 3.00264 62.2303 3.05597C62.3797 3.10931 62.481 3.21064 62.5343 3.35997C62.5983 3.49864 62.6303 3.66931 62.6303 3.87197C62.6303 4.12797 62.577 4.44797 62.4703 4.83197C62.3743 5.20531 62.241 5.61064 62.0703 6.04797C61.8997 6.47464 61.7077 6.90131 61.4943 7.32798C61.281 7.75464 61.0623 8.13864 60.8383 8.47997C61.073 8.49064 61.297 8.45864 61.5103 8.38398C61.7343 8.30931 61.9317 8.18131 62.1023 7.99997C62.3157 7.76531 62.5077 7.47731 62.6783 7.13597C62.8597 6.78397 63.0197 6.46931 63.1583 6.19197C63.1903 6.12797 63.2383 6.09597 63.3023 6.09597C63.377 6.09597 63.441 6.13331 63.4943 6.20797C63.5477 6.28264 63.553 6.36264 63.5103 6.44797C63.4037 6.66131 63.2757 6.91197 63.1263 7.19998C62.9877 7.47731 62.833 7.74397 62.6623 7.99997C62.4917 8.25598 62.305 8.45864 62.1023 8.60798C61.9317 8.74664 61.761 8.83731 61.5903 8.87998C61.4197 8.92264 61.2437 8.94398 61.0623 8.94398C60.977 8.94398 60.8917 8.94398 60.8063 8.94398C60.721 8.93331 60.6303 8.92264 60.5343 8.91198C60.3637 9.13598 60.2037 9.30664 60.0543 9.42398C59.8943 9.54131 59.7237 9.63731 59.5423 9.71198C59.361 9.78664 59.1637 9.82398 58.9503 9.82398C58.3317 9.82398 57.9103 9.48798 57.6863 8.81598C57.4943 9.29598 57.329 9.77064 57.1903 10.24C57.0517 10.7093 56.9557 11.1466 56.9023 11.552C56.8917 11.6053 56.881 11.6586 56.8703 11.712C56.8703 11.776 56.8703 11.8346 56.8703 11.888C56.8703 12.0906 56.913 12.2186 56.9983 12.272C57.009 12.2826 57.0143 12.2986 57.0143 12.32C57.0143 12.3946 56.945 12.432 56.8063 12.432C56.753 12.4426 56.6997 12.448 56.6463 12.448C56.6037 12.448 56.5557 12.448 56.5023 12.448ZM59.2543 8.11198C59.4037 7.84531 59.5423 7.55198 59.6703 7.23198C59.7983 6.90131 59.9157 6.58131 60.0223 6.27198C60.129 5.96264 60.2143 5.69597 60.2783 5.47197C60.353 5.23731 60.401 5.08264 60.4223 5.00798C60.465 4.85864 60.497 4.72531 60.5183 4.60798C60.5503 4.47997 60.5717 4.37331 60.5823 4.28797C60.401 4.52264 60.177 4.83731 59.9103 5.23198C59.6437 5.62664 59.3663 6.04264 59.0783 6.47997C58.801 6.91731 58.545 7.32797 58.3103 7.71198L59.1743 8.07998C59.1957 8.10131 59.2223 8.11198 59.2543 8.11198ZM58.4223 8.94398C58.5183 8.94398 58.6143 8.90664 58.7103 8.83198C58.8063 8.74664 58.9077 8.63464 59.0143 8.49598C58.8543 8.42131 58.6997 8.34664 58.5503 8.27198C58.4117 8.18664 58.2677 8.10131 58.1183 8.01597L57.9743 8.25598C57.9957 8.34131 58.0223 8.42664 58.0543 8.51198C58.0863 8.59731 58.1237 8.67731 58.1663 8.75198C58.2517 8.87998 58.337 8.94398 58.4223 8.94398ZM64.2273 9.80798C63.7047 9.80798 63.3367 9.69064 63.1233 9.45598C62.9207 9.21064 62.8193 8.90664 62.8193 8.54397C62.8193 8.15998 62.8887 7.74931 63.0273 7.31198C63.1767 6.86398 63.342 6.45331 63.5233 6.07997C63.7153 5.69597 63.8647 5.40264 63.9713 5.19998C64.4087 4.38931 64.91 3.79731 65.4753 3.42397C66.0513 3.05064 66.686 2.86397 67.3793 2.86397C67.6247 2.86397 67.9127 2.87464 68.2433 2.89597C68.574 2.91731 68.91 2.92797 69.2513 2.92797C69.422 2.92797 69.5873 2.92264 69.7473 2.91197C69.9073 2.90131 70.062 2.89597 70.2113 2.89597H70.2753C70.4567 2.89597 70.5473 2.92797 70.5473 2.99197C70.5473 3.03464 70.4833 3.08264 70.3553 3.13597C70.2167 3.18931 70.0513 3.37064 69.8593 3.67998C69.6673 3.97864 69.47 4.34131 69.2673 4.76797C69.0647 5.19464 68.8727 5.62664 68.6913 6.06397C68.5953 6.30931 68.4673 6.63997 68.3073 7.05597C68.1473 7.46131 68.03 7.87731 67.9553 8.30397C67.9447 8.37864 67.934 8.44798 67.9233 8.51198C67.9233 8.56531 67.9233 8.61864 67.9233 8.67198C67.9233 8.93864 67.9927 9.07198 68.1313 9.07198C68.302 9.07198 68.478 8.98131 68.6593 8.79998C68.8407 8.61864 69.0167 8.39998 69.1873 8.14398C69.3367 7.91998 69.486 7.66931 69.6353 7.39197C69.7847 7.11464 69.918 6.85864 70.0353 6.62398C70.1527 6.37864 70.238 6.20797 70.2913 6.11197C70.3233 6.04797 70.366 6.01597 70.4193 6.01597C70.4833 6.01597 70.542 6.06397 70.5953 6.15997C70.6487 6.24531 70.654 6.33064 70.6113 6.41597C70.4087 6.81064 70.19 7.23197 69.9553 7.67998C69.7207 8.12798 69.4647 8.53331 69.1873 8.89598C68.718 9.50398 68.174 9.80798 67.5553 9.80798C67.086 9.80798 66.7393 9.66398 66.5153 9.37598C66.302 9.08798 66.1953 8.74131 66.1953 8.33598C66.1953 8.15464 66.2113 7.97864 66.2433 7.80798C66.126 7.99998 65.982 8.25064 65.8113 8.55998C65.6407 8.85864 65.4433 9.13064 65.2193 9.37598C65.006 9.62131 64.766 9.75998 64.4993 9.79198C64.4567 9.79198 64.414 9.79198 64.3713 9.79198C64.3287 9.80264 64.2807 9.80798 64.2273 9.80798ZM64.8193 8.99198C64.926 8.99198 65.0647 8.89598 65.2353 8.70398C65.4167 8.51198 65.598 8.27198 65.7793 7.98398C65.9713 7.68531 66.1367 7.38664 66.2753 7.08798C66.3073 7.00264 66.382 6.82131 66.4993 6.54397C66.6273 6.25597 66.766 5.92531 66.9153 5.55197C67.0753 5.16797 67.2353 4.78397 67.3953 4.39997C67.5553 4.01597 67.694 3.67997 67.8113 3.39197C67.822 3.35997 67.8273 3.32264 67.8273 3.27997C67.8273 3.21597 67.7953 3.18397 67.7313 3.18397C67.6673 3.18397 67.5927 3.21064 67.5073 3.26397C67.422 3.30664 67.342 3.35464 67.2673 3.40797C67.1287 3.51464 66.9473 3.73864 66.7233 4.07997C66.51 4.41064 66.2807 4.79997 66.0353 5.24797C65.8007 5.69597 65.5767 6.15464 65.3633 6.62398C65.15 7.08264 64.974 7.50397 64.8353 7.88797C64.7073 8.26131 64.6433 8.54398 64.6433 8.73598C64.6433 8.90664 64.702 8.99198 64.8193 8.99198ZM71.969 9.82398C71.3183 9.82398 70.7796 9.63198 70.353 9.24798C69.9263 8.86398 69.713 8.33064 69.713 7.64797C69.713 7.41331 69.7396 7.16797 69.793 6.91197C69.8463 6.65597 69.9316 6.43731 70.049 6.25598C70.1663 6.07464 70.321 5.98397 70.513 5.98397C70.6303 5.98397 70.7156 6.02131 70.769 6.09597C70.897 5.85064 71.0356 5.60531 71.185 5.35997C71.3343 5.11464 71.4836 4.86397 71.633 4.60798C71.8036 4.33064 72.001 4.02664 72.225 3.69597C72.4596 3.35464 72.7263 3.05597 73.025 2.79997C73.3236 2.53331 73.649 2.38397 74.001 2.35197C74.0436 2.34131 74.0863 2.33597 74.129 2.33597C74.1823 2.33597 74.2303 2.33597 74.273 2.33597C74.3903 2.33597 74.513 2.34131 74.641 2.35197C74.769 2.36264 74.865 2.37331 74.929 2.38397C74.9503 2.39464 74.9663 2.42664 74.977 2.47997C74.9876 2.53331 74.961 2.55997 74.897 2.55997C74.8543 2.55997 74.769 2.59197 74.641 2.65597C74.513 2.70931 74.4383 2.84264 74.417 3.05597C74.3956 3.80264 74.3476 4.54931 74.273 5.29597C74.209 6.04264 74.1076 6.66664 73.969 7.16797C73.905 7.42397 73.8036 7.70131 73.665 7.99997C73.5263 8.29864 73.361 8.56531 73.169 8.79998C72.977 9.03464 72.7743 9.19464 72.561 9.27998C72.7743 9.27998 72.9983 9.21598 73.233 9.08798C73.4783 8.94931 73.7023 8.78398 73.905 8.59198C74.1183 8.39998 74.2783 8.22931 74.385 8.07998C74.6196 7.74931 74.833 7.40264 75.025 7.03997C75.2276 6.66664 75.377 6.37864 75.473 6.17597C75.505 6.12264 75.5423 6.09597 75.585 6.09597C75.6383 6.09597 75.6863 6.12797 75.729 6.19197C75.7716 6.25597 75.793 6.32531 75.793 6.39997C75.793 6.42131 75.7876 6.44264 75.777 6.46397C75.777 6.48531 75.7716 6.50664 75.761 6.52797C75.569 6.91197 75.3556 7.30131 75.121 7.69598C74.897 8.07998 74.6356 8.43731 74.337 8.76798C74.0383 9.08798 73.697 9.34398 73.313 9.53598C72.929 9.72798 72.481 9.82398 71.969 9.82398ZM70.929 8.81598C71.0463 8.81598 71.1636 8.77864 71.281 8.70398C71.3983 8.62931 71.4943 8.51198 71.569 8.35198C71.729 7.99998 71.873 7.59464 72.001 7.13597C72.129 6.67731 72.241 6.22397 72.337 5.77597C72.433 5.31731 72.513 4.91197 72.577 4.55997C72.6516 4.19731 72.705 3.93597 72.737 3.77597C72.577 3.96797 72.3796 4.23997 72.145 4.59197C71.921 4.94397 71.7023 5.29598 71.489 5.64797C71.2863 5.99997 71.1316 6.28264 71.025 6.49598C71.0356 6.74131 70.9396 6.95998 70.737 7.15197C70.5343 7.34397 70.3583 7.54131 70.209 7.74398V7.91998C70.209 7.96264 70.209 8.01598 70.209 8.07998C70.2196 8.14398 70.2303 8.20264 70.241 8.25598C70.2943 8.42664 70.385 8.56531 70.513 8.67198C70.6516 8.76798 70.7903 8.81598 70.929 8.81598ZM77.1796 9.82398C76.5289 9.82398 75.9903 9.63198 75.5636 9.24798C75.1369 8.86398 74.9236 8.33064 74.9236 7.64797C74.9236 7.41331 74.9503 7.16797 75.0036 6.91197C75.0569 6.65597 75.1423 6.43731 75.2596 6.25598C75.3769 6.07464 75.5316 5.98397 75.7236 5.98397C75.8409 5.98397 75.9263 6.02131 75.9796 6.09597C76.1076 5.85064 76.2463 5.60531 76.3956 5.35997C76.5449 5.11464 76.6943 4.86397 76.8436 4.60798C77.0143 4.33064 77.2116 4.02664 77.4356 3.69597C77.6703 3.35464 77.9369 3.05597 78.2356 2.79997C78.5343 2.53331 78.8596 2.38397 79.2116 2.35197C79.2543 2.34131 79.2969 2.33597 79.3396 2.33597C79.3929 2.33597 79.4409 2.33597 79.4836 2.33597C79.6009 2.33597 79.7236 2.34131 79.8516 2.35197C79.9796 2.36264 80.0756 2.37331 80.1396 2.38397C80.1609 2.39464 80.1769 2.42664 80.1876 2.47997C80.1983 2.53331 80.1716 2.55997 80.1076 2.55997C80.0649 2.55997 79.9796 2.59197 79.8516 2.65597C79.7236 2.70931 79.6489 2.84264 79.6276 3.05597C79.6063 3.80264 79.5583 4.54931 79.4836 5.29597C79.4196 6.04264 79.3183 6.66664 79.1796 7.16797C79.1156 7.42397 79.0143 7.70131 78.8756 7.99997C78.7369 8.29864 78.5716 8.56531 78.3796 8.79998C78.1876 9.03464 77.9849 9.19464 77.7716 9.27998C77.9849 9.27998 78.2089 9.21598 78.4436 9.08798C78.6889 8.94931 78.9129 8.78398 79.1156 8.59198C79.3289 8.39998 79.4889 8.22931 79.5956 8.07998C79.8303 7.74931 80.0436 7.40264 80.2356 7.03997C80.4383 6.66664 80.5876 6.37864 80.6836 6.17597C80.7156 6.12264 80.7529 6.09597 80.7956 6.09597C80.8489 6.09597 80.8969 6.12797 80.9396 6.19197C80.9823 6.25597 81.0036 6.32531 81.0036 6.39997C81.0036 6.42131 80.9983 6.44264 80.9876 6.46397C80.9876 6.48531 80.9823 6.50664 80.9716 6.52797C80.7796 6.91197 80.5663 7.30131 80.3316 7.69598C80.1076 8.07998 79.8463 8.43731 79.5476 8.76798C79.2489 9.08798 78.9076 9.34398 78.5236 9.53598C78.1396 9.72798 77.6916 9.82398 77.1796 9.82398ZM76.1396 8.81598C76.2569 8.81598 76.3743 8.77864 76.4916 8.70398C76.6089 8.62931 76.7049 8.51198 76.7796 8.35198C76.9396 7.99998 77.0836 7.59464 77.2116 7.13597C77.3396 6.67731 77.4516 6.22397 77.5476 5.77597C77.6436 5.31731 77.7236 4.91197 77.7876 4.55997C77.8623 4.19731 77.9156 3.93597 77.9476 3.77597C77.7876 3.96797 77.5903 4.23997 77.3556 4.59197C77.1316 4.94397 76.9129 5.29598 76.6996 5.64797C76.4969 5.99997 76.3423 6.28264 76.2356 6.49598C76.2463 6.74131 76.1503 6.95998 75.9476 7.15197C75.7449 7.34397 75.5689 7.54131 75.4196 7.74398V7.91998C75.4196 7.96264 75.4196 8.01598 75.4196 8.07998C75.4303 8.14398 75.4409 8.20264 75.4516 8.25598C75.5049 8.42664 75.5956 8.56531 75.7236 8.67198C75.8623 8.76798 76.0009 8.81598 76.1396 8.81598ZM81.9742 9.83998C81.5902 9.83998 81.2436 9.73331 80.9342 9.51998C80.6249 9.29598 80.4702 8.93331 80.4702 8.43198C80.4702 8.10131 80.5236 7.71731 80.6302 7.27997C80.7476 6.84264 80.8916 6.39464 81.0622 5.93597C81.2329 5.46664 81.4089 5.03464 81.5902 4.63998C81.7822 4.23464 81.9529 3.90397 82.1022 3.64797C82.3369 3.27464 82.5982 3.04531 82.8862 2.95997C83.1849 2.87464 83.5476 2.83197 83.9742 2.83197C84.2836 2.83197 84.5396 2.86931 84.7422 2.94397C84.9449 3.00797 84.9769 3.08264 84.8382 3.16797C84.6356 3.30664 84.3742 3.61597 84.0542 4.09597C83.7342 4.57597 83.4249 5.11464 83.1262 5.71198C83.0409 5.88264 82.9342 6.11197 82.8062 6.39997C82.6782 6.67731 82.5502 6.97597 82.4222 7.29597C82.3049 7.60531 82.2036 7.90397 82.1182 8.19197C82.0329 8.46931 81.9902 8.69864 81.9902 8.87998C81.9902 9.14664 82.1129 9.27998 82.3582 9.27998C82.6142 9.27998 82.9022 9.15731 83.2222 8.91198C83.3716 8.79464 83.5102 8.66131 83.6382 8.51198C83.7662 8.36264 83.8836 8.21331 83.9902 8.06397C84.2036 7.77597 84.3956 7.46664 84.5662 7.13597C84.7476 6.79464 84.9129 6.47464 85.0622 6.17597C85.0942 6.11197 85.1369 6.07997 85.1902 6.07997C85.2649 6.07997 85.3289 6.11731 85.3822 6.19197C85.4356 6.26664 85.4409 6.34664 85.3982 6.43197C85.2382 6.75197 85.0409 7.13064 84.8062 7.56798C84.5716 7.99464 84.2996 8.38931 83.9902 8.75198C83.7236 9.06131 83.4196 9.32264 83.0782 9.53598C82.7476 9.73864 82.3796 9.83998 81.9742 9.83998ZM84.2622 2.03197C84.0809 2.03197 83.9369 1.97331 83.8302 1.85597C83.7236 1.72797 83.6702 1.56264 83.6702 1.35997C83.6702 1.11464 83.7342 0.890642 83.8622 0.687975C83.9902 0.485308 84.1502 0.319975 84.3422 0.191975C84.5342 0.0639744 84.7316 -2.57492e-05 84.9342 -2.57492e-05C85.1156 -2.57492e-05 85.2596 0.0639744 85.3662 0.191975C85.4729 0.309308 85.5262 0.458641 85.5262 0.639975C85.5262 0.874641 85.4622 1.09864 85.3342 1.31197C85.2062 1.52531 85.0462 1.70131 84.8542 1.83997C84.6622 1.96797 84.4649 2.03197 84.2622 2.03197ZM87.1247 9.82398C86.4421 9.82398 85.9087 9.71198 85.5247 9.48798C85.1407 9.26398 84.9487 8.83198 84.9487 8.19197C84.9487 7.74397 85.0181 7.27464 85.1567 6.78397C85.3061 6.28264 85.5141 5.79731 85.7807 5.32797C86.0474 4.85864 86.3621 4.43197 86.7247 4.04798C87.0874 3.66397 87.4874 3.35997 87.9247 3.13597C88.3621 2.90131 88.8261 2.78397 89.3167 2.78397C89.6367 2.78397 89.9407 2.81064 90.2287 2.86397C90.5167 2.91731 90.7514 3.03997 90.9327 3.23197C91.1141 3.41331 91.2047 3.70131 91.2047 4.09597C91.2047 4.51197 91.0927 5.05064 90.8687 5.71198C90.6447 6.37331 90.3407 7.01864 89.9567 7.64797C89.9354 7.73331 89.9247 7.81864 89.9247 7.90398C89.9247 8.02131 89.9461 8.13864 89.9887 8.25598C90.0421 8.37331 90.1327 8.43198 90.2607 8.43198C90.4314 8.43198 90.6074 8.31464 90.7887 8.07998C90.9807 7.81331 91.1781 7.49331 91.3807 7.11998C91.5834 6.74664 91.7381 6.44264 91.8447 6.20797C91.8661 6.14397 91.9141 6.11197 91.9887 6.11197C92.0634 6.11197 92.1274 6.14397 92.1807 6.20797C92.2447 6.27197 92.2501 6.34664 92.1967 6.43197C92.1114 6.59197 91.9994 6.81597 91.8607 7.10398C91.7221 7.38131 91.5621 7.66397 91.3807 7.95197C91.1994 8.23998 91.0021 8.46931 90.7887 8.63998C90.6287 8.76798 90.4581 8.83198 90.2767 8.83198C90.0634 8.83198 89.9034 8.78398 89.7967 8.68798C89.6901 8.58131 89.6047 8.43198 89.5407 8.23997C89.1994 8.69864 88.8207 9.07731 88.4047 9.37598C87.9887 9.67464 87.5621 9.82398 87.1247 9.82398ZM86.8207 9.32798C86.9381 9.32798 87.0981 9.17331 87.3007 8.86398C87.5034 8.55464 87.7221 8.15998 87.9567 7.67998C88.1914 7.18931 88.4207 6.69331 88.6447 6.19197C88.6874 6.10664 88.7567 5.95197 88.8527 5.72797C88.9487 5.49331 89.0501 5.23731 89.1567 4.95997C89.2634 4.67197 89.3541 4.39464 89.4287 4.12797C89.5034 3.86131 89.5407 3.64797 89.5407 3.48797C89.5407 3.30664 89.4874 3.21597 89.3807 3.21597C89.2847 3.21597 89.1621 3.31197 89.0127 3.50397C88.8634 3.68531 88.6981 3.92531 88.5167 4.22397C88.3354 4.52264 88.1594 4.84264 87.9887 5.18397C87.8181 5.52531 87.6687 5.84531 87.5407 6.14398C87.4127 6.44264 87.2794 6.77864 87.1407 7.15197C87.0021 7.52531 86.8847 7.88264 86.7887 8.22398C86.7034 8.55464 86.6607 8.82131 86.6607 9.02398C86.6607 9.22664 86.7141 9.32798 86.8207 9.32798ZM95.8971 9.83998C95.3531 9.83998 94.9851 9.69064 94.7931 9.39198C94.6011 9.09331 94.5051 8.74664 94.5051 8.35198C94.5051 8.06398 94.5371 7.77597 94.6011 7.48797C94.6651 7.19997 94.7344 6.94397 94.8091 6.71997C94.8838 6.49598 94.9371 6.34131 94.9691 6.25598C95.0971 5.87198 95.2304 5.50397 95.3691 5.15197C95.5184 4.78931 95.6304 4.53864 95.7051 4.39997C95.6731 4.45331 95.5558 4.60797 95.3531 4.86398C95.1504 5.11997 94.9104 5.43997 94.6331 5.82397C94.3664 6.19731 94.0998 6.59731 93.8331 7.02397C93.5664 7.43997 93.3424 7.84531 93.1611 8.23997C92.9904 8.62398 92.9051 8.95464 92.9051 9.23198C92.9051 9.42398 92.9478 9.56264 93.0331 9.64798C93.0651 9.67998 93.0811 9.70664 93.0811 9.72798C93.0811 9.78131 93.0224 9.79731 92.9051 9.77598C92.6598 9.73331 92.4198 9.69064 92.1851 9.64798C91.9504 9.59464 91.7531 9.49331 91.5931 9.34398C91.4438 9.18398 91.3691 8.92264 91.3691 8.55998C91.3691 8.27198 91.4438 7.92531 91.5931 7.51997C91.7424 7.10397 91.9184 6.67731 92.1211 6.23997C92.3238 5.80264 92.4998 5.39731 92.6491 5.02397C92.6811 4.93864 92.7344 4.81064 92.8091 4.63998C92.8838 4.45864 92.9584 4.27197 93.0331 4.07997C93.1184 3.87731 93.1824 3.70131 93.2251 3.55197C93.2678 3.39197 93.2784 3.28531 93.2571 3.23197C93.2358 3.18931 93.2251 3.15731 93.2251 3.13597C93.2251 3.00797 93.3104 2.94397 93.4811 2.94397C93.6518 2.94397 93.8224 2.97064 93.9931 3.02397C94.1744 3.06664 94.3344 3.14131 94.4731 3.24797C94.6224 3.35464 94.7398 3.48264 94.8251 3.63197C94.9104 3.78131 94.9531 3.94664 94.9531 4.12797C94.9531 4.24531 94.9264 4.38397 94.8731 4.54397C94.8518 4.61864 94.8038 4.71997 94.7291 4.84797C94.6651 4.96531 94.5958 5.09331 94.5211 5.23198C94.4464 5.37064 94.3664 5.51464 94.2811 5.66397C94.2064 5.81331 94.1798 5.89331 94.2011 5.90398C94.4678 5.43464 94.7558 4.99731 95.0651 4.59197C95.3851 4.17597 95.6731 3.81864 95.9291 3.51997C96.1958 3.22131 96.3718 3.00264 96.4571 2.86397C96.5424 2.79997 96.6811 2.76797 96.8731 2.76797C97.0971 2.76797 97.3264 2.83731 97.5611 2.97597C97.7958 3.11464 97.9131 3.36531 97.9131 3.72797C97.9131 4.02664 97.8064 4.38931 97.5931 4.81597C97.1344 5.69064 96.7824 6.47997 96.5371 7.18397C96.2918 7.87731 96.1691 8.38931 96.1691 8.71998C96.1691 8.95464 96.2331 9.07198 96.3611 9.07198C96.5104 9.07198 96.6811 8.97598 96.8731 8.78398C97.0651 8.59198 97.2464 8.36264 97.4171 8.09598C97.6518 7.75464 97.8651 7.39198 98.0571 7.00797C98.2598 6.62397 98.3984 6.35731 98.4731 6.20797C98.5051 6.14397 98.5531 6.11197 98.6171 6.11197C98.6811 6.11197 98.7398 6.14931 98.7931 6.22397C98.8571 6.28797 98.8678 6.36264 98.8251 6.44797C98.7504 6.59731 98.6384 6.80531 98.4891 7.07197C98.3504 7.33864 98.1904 7.62664 98.0091 7.93597C97.8278 8.23464 97.6304 8.52264 97.4171 8.79998C97.1824 9.11998 96.9478 9.37598 96.7131 9.56798C96.4784 9.74931 96.2064 9.83998 95.8971 9.83998Z" fill="black"/>
</svg>
